# xmcd
#
# Track frame offsets:
# 150
# 12679
# 27021
# 39993
# 54850
# 70796
# 82620
# 98184
# 114085
# 133434
# 145047
# 164596
# 181573
# 195168
#
# Disc length: 2770 seconds
#
#
# Revision: 0
# Processed by: cddbd v1.5PL3 Copyright (c) Steve Scherf et al.
# Submitted via: FreeRIP 2.35 
#
DISCID=a40ad00e
DTITLE=Truck Stop - Das Beste von Truck Stop
DYEAR=1900
DGENRE=Country
TTITLE0=Der wilde, wilde Westen
TTITLE1=Angeln entspannt
TTITLE2=Die Frau mit dem Gurt
TTITLE3=Easy Rider
TTITLE4=Ich möcht so gern Dave Dudley hörn
TTITLE5=Ich pfeife auf die Autobahn
TTITLE6=Jeden Tag in einer anderen Stadt
TTITLE7=Kopf oder Zahl
TTITLE8=Lass mich gehn
TTITLE9=Lass die Mädels wissen...
TTITLE10=Nein danke, ich rauch nicht mehr
TTITLE11=Old Texas Town
TTITLE12=Take it easy altes Haus
TTITLE13=Wieder mal zu spät.
EXTD=Der Küper Sound
EXTT0=
EXTT1=
EXTT2=
EXTT3=
EXTT4=
EXTT5=
EXTT6=
EXTT7=
EXTT8=
EXTT9=
EXTT10=
EXTT11=
EXTT12=
EXTT13=
PLAYORDER=
